<?xml version="1.0" standalone="no"?>
<!DOCTYPE svg PUBLIC "-//W3C//DTD SVG 20010904//EN"
 "http://www.w3.org/TR/2001/REC-SVG-20010904/DTD/svg10.dtd">
<svg version="1.0" xmlns="http://www.w3.org/2000/svg"
 width="580.000000pt" height="386.000000pt" viewBox="0 0 580.000000 386.000000"
 preserveAspectRatio="xMidYMid meet">

<g transform="translate(0.000000,386.000000) scale(0.100000,-0.100000)"
fill="#000000" stroke="none">
<path d="M3135 3152 l-50 -17 -5 -62 c-7 -83 -27 -105 -103 -107 -31 0 -60 -5
-65 -11 -10 -11 -32 -94 -32 -123 0 -11 16 -27 40 -41 74 -42 87 -87 45 -156
-14 -22 -25 -43 -25 -48 0 -17 84 -97 103 -97 11 0 35 10 54 21 65 40 115 23
154 -53 22 -43 30 -44 109 -20 l55 18 5 62 c7 83 29 105 113 112 l62 5 17 64
c20 73 17 81 -42 111 -23 12 -42 31 -51 51 -12 30 -11 36 14 81 15 26 27 54
27 61 0 7 -22 35 -49 61 l-50 49 -45 -27 c-77 -45 -124 -31 -168 52 -20 37
-39 39 -113 14z m201 -237 c56 -37 78 -117 49 -179 -53 -111 -212 -112 -264
-2 -65 137 87 265 215 181z"/>
<path d="M2495 2949 c-202 -24 -365 -107 -507 -257 -82 -87 -138 -181 -180
-303 -31 -90 -32 -100 -33 -249 0 -181 12 -235 80 -375 128 -261 383 -431 680
-451 151 -11 265 13 437 93 125 57 131 56 262 -76 l98 -98 -15 -43 c-10 -30
-12 -53 -6 -74 12 -41 349 -379 405 -406 77 -38 185 -21 248 38 64 60 85 175
47 257 -12 25 -89 110 -203 223 -179 177 -185 182 -226 182 -22 0 -53 -5 -68
-12 -25 -12 -30 -9 -130 94 -98 100 -104 109 -104 148 0 28 14 70 44 133 70
147 98 299 81 451 l-7 68 -36 -8 c-72 -17 -126 -11 -169 18 l-41 27 15 -47
c24 -74 21 -232 -5 -317 -60 -197 -217 -352 -411 -407 -87 -25 -237 -26 -317
-3 -107 31 -194 83 -270 159 -362 367 -122 986 391 1014 82 4 158 -5 207 -23
15 -6 13 1 -8 40 -22 39 -26 55 -22 103 3 31 8 65 12 74 6 13 1 18 -26 22 -58
10 -161 12 -223 5z"/>
<path d="M2607 2618 c-8 -13 -27 -42 -41 -66 -29 -47 -74 -72 -117 -67 -15 2
-49 18 -76 34 -28 17 -57 31 -64 31 -18 0 -139 -121 -139 -138 0 -6 15 -35 32
-64 57 -92 39 -156 -57 -209 -26 -14 -51 -33 -56 -41 -7 -13 31 -171 46 -186
3 -4 40 -7 80 -7 71 0 76 -2 107 -33 31 -30 33 -38 38 -115 l5 -82 75 -22
c111 -32 115 -32 150 31 39 69 60 87 108 93 33 4 51 0 95 -26 30 -17 63 -31
74 -31 11 0 47 28 82 65 l63 65 -37 66 c-31 55 -36 73 -32 106 6 48 24 69 93
108 37 21 54 36 54 50 0 22 -35 153 -45 170 -3 5 -39 10 -80 10 -64 0 -77 3
-104 25 -33 29 -55 81 -47 116 3 13 2 39 -2 58 -7 32 -12 36 -70 52 -115 32
-119 33 -135 7z m71 -309 c49 -24 96 -87 106 -145 5 -21 1 -56 -8 -87 -25 -85
-99 -139 -191 -139 -80 0 -147 45 -179 124 -69 165 108 326 272 247z"/>
</g>
</svg>
